<?xml version="1.0" encoding="utf-8"?>
<!-- Generator: Adobe Illustrator 19.0.0, SVG Export Plug-In . SVG Version: 6.00 Build 0)  -->
<link rel="stylesheet" href="font_logo.css">
<svg version="1.1"
	 id="svg8" xmlns:sodipodi="http://sodipodi.sourceforge.net/DTD/sodipodi-0.dtd" xmlns:svg="http://www.w3.org/2000/svg" xmlns:inkscape="http://www.inkscape.org/namespaces/inkscape" xmlns:rdf="http://www.w3.org/1999/02/22-rdf-syntax-ns#" xmlns:cc="http://creativecommons.org/ns#" xmlns:dc="http://purl.org/dc/elements/1.1/" inkscape:version="0.92.3 (2405546, 2018-03-11)" sodipodi:docname="Rede_DEF.svg"
	 xmlns="http://www.w3.org/2000/svg" xmlns:xlink="http://www.w3.org/1999/xlink" x="0px" y="0px" viewBox="-58.3 37.1 372.2 322.5"
	 style="enable-background:new -58.3 37.1 372.2 322.5;" xml:space="preserve">
<style type="text/css">
	.st0{fill:#772953;}
	.st1{fill:#762953;}
	.st2{fill:none;}
	.st3{fill:#1B4795;}
	.st4{font-family:'IndieFlower';}
	.st5{font-size:58px;}
</style>
<defs>
	
	
		<inkscape:path-effect  fuse_tolerance="0" prop_units="false" pattern="m 124.22689,-245.69883 c 0,-2.75999 2.24,-5 5,-5 2.76,0 5,2.24001 5,5 0,2.76001 -2.24,5.00001 -5,5.00001 -2.76,0 -5,-2.24 -5,-5.00001 z" effect="skeletal" id="path-effect878" copytype="single_stretched" is_visible="true" prop_scale="0.26655285" spacing="0" scale_y_rel="false" tang_offset="0" normal_offset="0" vertical_pattern="false">
		</inkscape:path-effect>
	
		<inkscape:path-effect  fuse_tolerance="0" prop_units="false" pattern="m -477.69542,-40.223388 c 0,-2.76 2.24,-5 5,-5 2.76,0 5,2.24 5,5 0,2.76 -2.24,5 -5,5 -2.76,0 -5,-2.24 -5,-5 z" effect="skeletal" id="path-effect874" copytype="single_stretched" is_visible="true" prop_scale="-0.21941906" spacing="0" scale_y_rel="false" tang_offset="0" normal_offset="0" vertical_pattern="false">
		</inkscape:path-effect>
	
		<inkscape:path-effect  fuse_tolerance="0" prop_units="false" pattern="m 11.973675,12.670635 c 0,-2.7599996 2.24,-4.9999996 5,-4.9999996 2.76,0 5,2.24 5,4.9999996 0,2.76 -2.24,5 -5,5 -2.76,0 -5,-2.24 -5,-5 z" effect="skeletal" id="path-effect852" copytype="single_stretched" is_visible="true" prop_scale="0.26458333" spacing="0" scale_y_rel="false" tang_offset="0" normal_offset="0" vertical_pattern="false">
		</inkscape:path-effect>
	
		<inkscape:path-effect  fuse_tolerance="0" prop_units="false" pattern="m -0.49044716,5.9825075 c 0,-2.76 2.24000006,-4.99999991 5.00000006,-4.99999991 2.76,0 5,2.23999991 5,4.99999991 0,2.76 -2.24,5.0000005 -5,5.0000005 -2.76,0 -5.00000006,-2.2400005 -5.00000006,-5.0000005 z" effect="skeletal" id="path-effect4615" copytype="single_stretched" is_visible="true" prop_scale="-0.22140043" spacing="0" scale_y_rel="false" tang_offset="0" normal_offset="0" vertical_pattern="false">
		</inkscape:path-effect>
	
		<inkscape:path-effect  fuse_tolerance="0" prop_units="false" pattern="m 0.39894495,4.5292697 c 0,-2.76 2.23999995,-5.00000009 4.99999995,-5.00000009 2.76,0 5.0000001,2.24000009 5.0000001,5.00000009 0,2.76 -2.2400001,5 -5.0000001,5 -2.76,0 -4.99999995,-2.24 -4.99999995,-5 z" effect="skeletal" id="path-effect4611" copytype="single_stretched" is_visible="true" prop_scale="0.25697" spacing="0" scale_y_rel="false" tang_offset="0" normal_offset="0" vertical_pattern="false">
		</inkscape:path-effect>
	
		<inkscape:path-effect  fuse_tolerance="0" prop_units="false" pattern="M 0,5 C 0,2.24 2.24,0 5,0 7.76,0 10,2.24 10,5 10,7.76 7.76,10 5,10 2.24,10 0,7.76 0,5 Z" effect="skeletal" id="path-effect4607" copytype="single_stretched" is_visible="true" prop_scale="0.26458333" spacing="0" scale_y_rel="false" tang_offset="0" normal_offset="0" vertical_pattern="false">
		</inkscape:path-effect>
	
		<inkscape:path-effect  fuse_tolerance="0" prop_units="false" pattern="M 0,5 C 0,2.24 2.24,0 5,0 7.76,0 10,2.24 10,5 10,7.76 7.76,10 5,10 2.24,10 0,7.76 0,5 Z" effect="skeletal" id="path-effect4603" copytype="single_stretched" is_visible="true" prop_scale="0.26458333" spacing="0" scale_y_rel="false" tang_offset="0" normal_offset="0" vertical_pattern="false">
		</inkscape:path-effect>
	
		<inkscape:path-effect  fuse_tolerance="0" prop_units="false" pattern="m 12.722029,-11.089625 c 0,-2.760001 2.24,-5.000001 5,-5.000001 2.76,0 5,2.24 5,5.000001 0,2.7599996 -2.24,4.9999995 -5,4.9999995 -2.76,0 -5,-2.2399999 -5,-4.9999995 z" effect="skeletal" id="path-effect4599" copytype="single_stretched" is_visible="true" prop_scale="0.20253518" spacing="0" scale_y_rel="false" tang_offset="0" normal_offset="0" vertical_pattern="false">
		</inkscape:path-effect>
	
		<inkscape:path-effect  fuse_tolerance="0" prop_units="false" pattern="M 0,5 C 0,2.24 2.24,0 5,0 7.76,0 10,2.24 10,5 10,7.76 7.76,10 5,10 2.24,10 0,7.76 0,5 Z" effect="skeletal" id="path-effect4575" copytype="single_stretched" is_visible="true" prop_scale="0.26493809" spacing="0" scale_y_rel="false" tang_offset="0" normal_offset="0" vertical_pattern="false">
		</inkscape:path-effect>
	
		<inkscape:path-effect  fuse_tolerance="0" prop_units="false" pattern="M 0,5 C 0,2.24 2.24,0 5,0 7.76,0 10,2.24 10,5 10,7.76 7.76,10 5,10 2.24,10 0,7.76 0,5 Z" effect="skeletal" id="path-effect4617" copytype="single_stretched" is_visible="true" prop_scale="-0.032647257" spacing="0" scale_y_rel="false" tang_offset="0" normal_offset="0" vertical_pattern="false">
		</inkscape:path-effect>
	
		<inkscape:path-effect  fuse_tolerance="0" prop_units="false" pattern="M 0,5 C 0,2.24 2.24,0 5,0 7.76,0 10,2.24 10,5 10,7.76 7.76,10 5,10 2.24,10 0,7.76 0,5 Z" effect="skeletal" id="path-effect4613" copytype="single_stretched" is_visible="true" prop_scale="-0.032647257" spacing="0" scale_y_rel="false" tang_offset="0" normal_offset="0" vertical_pattern="false">
		</inkscape:path-effect>
	
		<inkscape:path-effect  fuse_tolerance="0" prop_units="false" pattern="M 0,5 C 0,2.24 2.24,0 5,0 7.76,0 10,2.24 10,5 10,7.76 7.76,10 5,10 2.24,10 0,7.76 0,5 Z" effect="skeletal" id="path-effect4609" copytype="single_stretched" is_visible="true" prop_scale="-0.032647257" spacing="0" scale_y_rel="false" tang_offset="0" normal_offset="0" vertical_pattern="false">
		</inkscape:path-effect>
	
		<inkscape:path-effect  fuse_tolerance="0" prop_units="false" pattern="M 0,5 C 0,2.24 2.24,0 5,0 7.76,0 10,2.24 10,5 10,7.76 7.76,10 5,10 2.24,10 0,7.76 0,5 Z" effect="skeletal" id="path-effect4605" copytype="single_stretched" is_visible="true" prop_scale="-0.032647257" spacing="0" scale_y_rel="false" tang_offset="0" normal_offset="0" vertical_pattern="false">
		</inkscape:path-effect>
	
		<inkscape:path-effect  fuse_tolerance="0" prop_units="false" pattern="M 0,5 C 0,2.24 2.24,0 5,0 7.76,0 10,2.24 10,5 10,7.76 7.76,10 5,10 2.24,10 0,7.76 0,5 Z" effect="skeletal" id="path-effect4601" copytype="single_stretched" is_visible="true" prop_scale="-0.032647257" spacing="0" scale_y_rel="false" tang_offset="0" normal_offset="0" vertical_pattern="false">
		</inkscape:path-effect>
	
		<inkscape:path-effect  fuse_tolerance="0" prop_units="false" pattern="m 3.086963,5.4677217 c 0,-2.76 2.24,-5.00000003 5,-5.00000003 2.76,0 5,2.24000003 5,5.00000003 0,2.76 -2.24,5.0000003 -5,5.0000003 -2.76,0 -5,-2.2400003 -5,-5.0000003 z" effect="skeletal" id="path-effect4597" copytype="single_stretched" is_visible="true" prop_scale="-0.027683975" spacing="0" scale_y_rel="false" tang_offset="0" normal_offset="0" vertical_pattern="false">
		</inkscape:path-effect>
	
		<inkscape:path-effect  fuse_tolerance="0" prop_units="false" pattern="M 0,5 C 0,2.24 2.24,0 5,0 7.76,0 10,2.24 10,5 10,7.76 7.76,10 5,10 2.24,10 0,7.76 0,5 Z" effect="skeletal" id="path-effect4593" copytype="single_stretched" is_visible="true" prop_scale="-0.025691038" spacing="0" scale_y_rel="false" tang_offset="0" normal_offset="0" vertical_pattern="false">
		</inkscape:path-effect>
	
		<inkscape:path-effect  fuse_tolerance="0" prop_units="false" pattern="M 0,5 C 0,2.24 2.24,0 5,0 7.76,0 10,2.24 10,5 10,7.76 7.76,10 5,10 2.24,10 0,7.76 0,5 Z" effect="skeletal" id="path-effect4589" copytype="single_stretched" is_visible="true" prop_scale="-0.025691038" spacing="0" scale_y_rel="false" tang_offset="0" normal_offset="0" vertical_pattern="false">
		</inkscape:path-effect>
	
		<inkscape:path-effect  fuse_tolerance="0" prop_units="false" pattern="M 0,5 C 0,2.24 2.24,0 5,0 7.76,0 10,2.24 10,5 10,7.76 7.76,10 5,10 2.24,10 0,7.76 0,5 Z" effect="skeletal" id="path-effect4585" copytype="single_stretched" is_visible="true" prop_scale="-0.025691038" spacing="0" scale_y_rel="false" tang_offset="0" normal_offset="0" vertical_pattern="false">
		</inkscape:path-effect>
	
		<inkscape:path-effect  fuse_tolerance="0" prop_units="false" pattern="m -3.648229,8.4611405 c 0,-2.76 2.2399999,-5 5,-5 2.76,0 5,2.24 5,5 0,2.7600005 -2.24,5.0000005 -5,5.0000005 -2.7600001,0 -5,-2.24 -5,-5.0000005 z" effect="skeletal" id="path-effect4563" copytype="single_stretched" is_visible="true" prop_scale="0.010862298" spacing="0" scale_y_rel="false" tang_offset="0" normal_offset="0" vertical_pattern="false">
		</inkscape:path-effect>
	
		<inkscape:path-effect  fuse_tolerance="0" prop_units="false" pattern="m -4.1159507,9.9578499 c 0,-2.76 2.2399999,-5 5.00000003,-5 2.75999997,0 4.99999997,2.24 4.99999997,5 0,2.7600001 -2.24,5.0000001 -4.99999997,5.0000001 -2.76000013,0 -5.00000003,-2.24 -5.00000003,-5.0000001 z" effect="skeletal" id="path-effect4559" copytype="single_stretched" is_visible="true" prop_scale="0.0091460132" spacing="0" scale_y_rel="false" tang_offset="0" normal_offset="0" vertical_pattern="false">
		</inkscape:path-effect>
	
		<inkscape:path-effect  fuse_tolerance="0" prop_units="false" pattern="m -3.648229,8.4611405 c 0,-2.76 2.2399999,-5 5,-5 2.76,0 5,2.24 5,5 0,2.7600005 -2.24,5.0000005 -5,5.0000005 -2.7600001,0 -5,-2.24 -5,-5.0000005 z" effect="skeletal" id="path-effect4555" copytype="single_stretched" is_visible="true" prop_scale="0.010862298" spacing="0" scale_y_rel="false" tang_offset="0" normal_offset="0" vertical_pattern="false">
		</inkscape:path-effect>
	
		<inkscape:path-effect  fuse_tolerance="0" prop_units="false" pattern="m -3.648229,8.4611405 c 0,-2.76 2.2399999,-5 5,-5 2.76,0 5,2.24 5,5 0,2.7600005 -2.24,5.0000005 -5,5.0000005 -2.7600001,0 -5,-2.24 -5,-5.0000005 z" effect="skeletal" id="path-effect4551" copytype="single_stretched" is_visible="true" prop_scale="0.010862298" spacing="0" scale_y_rel="false" tang_offset="0" normal_offset="0" vertical_pattern="false">
		</inkscape:path-effect>
	
		<inkscape:path-effect  fuse_tolerance="0" prop_units="false" pattern="m -3.648229,8.4611405 c 0,-2.76 2.2399999,-5 5,-5 2.76,0 5,2.24 5,5 0,2.7600005 -2.24,5.0000005 -5,5.0000005 -2.7600001,0 -5,-2.24 -5,-5.0000005 z" effect="skeletal" id="path-effect4547" copytype="single_stretched" is_visible="true" prop_scale="0.010862298" spacing="0" scale_y_rel="false" tang_offset="0" normal_offset="0" vertical_pattern="false">
		</inkscape:path-effect>
	
		<inkscape:path-effect  fuse_tolerance="0" prop_units="false" pattern="m -3.648229,8.4611405 c 0,-2.76 2.2399999,-5 5,-5 2.76,0 5,2.24 5,5 0,2.7600005 -2.24,5.0000005 -5,5.0000005 -2.7600001,0 -5,-2.24 -5,-5.0000005 z" effect="skeletal" id="path-effect4543" copytype="single_stretched" is_visible="true" prop_scale="0.010862298" spacing="0" scale_y_rel="false" tang_offset="0" normal_offset="0" vertical_pattern="false">
		</inkscape:path-effect>
	
		<inkscape:path-effect  fuse_tolerance="0" prop_units="false" pattern="M 0,5 C 0,2.24 2.24,0 5,0 7.76,0 10,2.24 10,5 10,7.76 7.76,10 5,10 2.24,10 0,7.76 0,5 Z" effect="skeletal" id="path-effect4539" copytype="single_stretched" is_visible="true" prop_scale="0.011547466" spacing="0" scale_y_rel="false" tang_offset="0" normal_offset="0" vertical_pattern="false">
		</inkscape:path-effect>
	
		<inkscape:path-effect  fuse_tolerance="0" prop_units="false" pattern="M 0,5 C 0,2.24 2.24,0 5,0 7.76,0 10,2.24 10,5 10,7.76 7.76,10 5,10 2.24,10 0,7.76 0,5 Z" effect="skeletal" id="path-effect4535" copytype="single_stretched" is_visible="true" prop_scale="0.26508633" spacing="0" scale_y_rel="false" tang_offset="0" normal_offset="0" vertical_pattern="false">
		</inkscape:path-effect>
	
		<inkscape:path-effect  fuse_tolerance="0" prop_units="false" pattern="m 0.18708867,5 c 0,-2.76 2.24000003,-5 5.00000003,-5 2.76,0 5.0000003,2.24 5.0000003,5 0,2.76 -2.2400003,5 -5.0000003,5 -2.76,0 -5.00000003,-2.24 -5.00000003,-5 z" effect="skeletal" id="path-effect4531" copytype="single_stretched" is_visible="true" prop_scale="0.26458439" spacing="0" scale_y_rel="false" tang_offset="0" normal_offset="0" vertical_pattern="false">
		</inkscape:path-effect>
	
		<inkscape:path-effect  fuse_tolerance="0" prop_units="false" pattern="m 55.515895,102.50784 c 0,-2.759996 2.24,-4.999996 5,-4.999996 2.76,0 5,2.24 5,4.999996 0,2.76 -2.24,5 -5,5 -2.76,0 -5,-2.24 -5,-5 z" effect="skeletal" id="path-effect4539-9" copytype="single_stretched" is_visible="true" prop_scale="0.007552225" spacing="0" scale_y_rel="false" tang_offset="0" normal_offset="0" vertical_pattern="false">
		</inkscape:path-effect>
	
		<inkscape:path-effect  fuse_tolerance="0" prop_units="false" pattern="m 90.784358,137.69152 c 0,-2.76 2.24,-5 5,-5 2.76,0 5.000002,2.24 5.000002,5 0,2.76 -2.240002,5 -5.000002,5 -2.76,0 -5,-2.24 -5,-5 z" effect="skeletal" id="path-effect4593-2" copytype="single_stretched" is_visible="true" prop_scale="-0.03156981" spacing="0" scale_y_rel="false" tang_offset="0" normal_offset="0" vertical_pattern="false">
		</inkscape:path-effect>
	
		<inkscape:path-effect  fuse_tolerance="0" prop_units="false" pattern="m 145.63251,233.7708 c 0,-2.76 2.24,-5 5,-5 2.76,0 5,2.24 5,5 0,2.76 -2.24,5 -5,5 -2.76,0 -5,-2.24 -5,-5 z" effect="skeletal" id="path-effect4593-2-9" copytype="single_stretched" is_visible="true" prop_scale="0.026834869" spacing="0" scale_y_rel="false" tang_offset="0" normal_offset="0" vertical_pattern="false">
		</inkscape:path-effect>
	
		<inkscape:path-effect  fuse_tolerance="0" prop_units="false" pattern="m -619.67321,-275.49743 c 0,-2.76 2.24,-5 5,-5 2.76,0 5,2.24 5,5 0,2.76 -2.24,5 -5,5 -2.76,0 -5,-2.24 -5,-5 z" effect="skeletal" id="path-effect874-3" copytype="single_stretched" is_visible="true" prop_scale="-0.21941906" spacing="0" scale_y_rel="false" tang_offset="0" normal_offset="0" vertical_pattern="false">
		</inkscape:path-effect>
	
		<inkscape:path-effect  fuse_tolerance="0" prop_units="false" pattern="m -50.747956,-107.35793 c 0,-2.76 2.240001,-5 5.000001,-5 2.76,0 5,2.24 5,5 0,2.76 -2.24,5 -5,5 -2.76,0 -5.000001,-2.24 -5.000001,-5 z" effect="skeletal" id="path-effect4615-9" copytype="single_stretched" is_visible="true" prop_scale="-0.18757507" spacing="0" scale_y_rel="false" tang_offset="0" normal_offset="0" vertical_pattern="false">
		</inkscape:path-effect>
	
		<inkscape:path-effect  fuse_tolerance="0" prop_units="false" pattern="m 63.770783,50.620999 c 0,-2.76 2.24,-5.000001 5,-5.000001 2.76,0 5,2.240001 5,5.000001 0,2.76 -2.24,5 -5,5 -2.76,0 -5,-2.24 -5,-5 z" effect="skeletal" id="path-effect4611-2" copytype="single_stretched" is_visible="true" prop_scale="0.2027358" spacing="0" scale_y_rel="false" tang_offset="0" normal_offset="0" vertical_pattern="false">
		</inkscape:path-effect>
	
		<inkscape:path-effect  fuse_tolerance="0" prop_units="false" pattern="m -172.55868,-170.68505 c 0,-2.76 2.24,-5 5,-5 2.76,0 5,2.24 5,5 0,2.76 -2.24,5 -5,5 -2.76,0 -5,-2.24 -5,-5 z" effect="skeletal" id="path-effect4615-5" copytype="single_stretched" is_visible="true" prop_scale="-0.22087738" spacing="0" scale_y_rel="false" tang_offset="0" normal_offset="0" vertical_pattern="false">
		</inkscape:path-effect>
	
		<inkscape:path-effect  fuse_tolerance="0" prop_units="false" pattern="m -171.56747,-171.8199 c 0,-2.76 2.24,-5 5,-5 2.76,0 5,2.24 5,5 0,2.76 -2.24,5 -5,5 -2.76,0 -5,-2.24 -5,-5 z" effect="skeletal" id="path-effect4611-1" copytype="single_stretched" is_visible="true" prop_scale="0.2650128" spacing="0" scale_y_rel="false" tang_offset="0" normal_offset="0" vertical_pattern="false">
		</inkscape:path-effect>
	
		<inkscape:path-effect  fuse_tolerance="0" prop_units="false" pattern="m -172.12873,-171.44572 c 0,-2.76 2.24,-5 5,-5 2.76,0 5,2.24 5,5 0,2.76 -2.24,5 -5,5 -2.76,0 -5,-2.24 -5,-5 z" effect="skeletal" id="path-effect4575-2" copytype="single_stretched" is_visible="true" prop_scale="0.26493808" spacing="0" scale_y_rel="false" tang_offset="0" normal_offset="0" vertical_pattern="false">
		</inkscape:path-effect>
	
		<inkscape:path-effect  fuse_tolerance="0" prop_units="false" pattern="m -172.12873,-171.44572 c 0,-2.76 2.24,-5 5,-5 2.76,0 5,2.24 5,5 0,2.76 -2.24,5 -5,5 -2.76,0 -5,-2.24 -5,-5 z" effect="skeletal" id="path-effect4535-9" copytype="single_stretched" is_visible="true" prop_scale="0.26508633" spacing="0" scale_y_rel="false" tang_offset="0" normal_offset="0" vertical_pattern="false">
		</inkscape:path-effect>
	
		<inkscape:path-effect  fuse_tolerance="0" prop_units="false" pattern="m -171.94164,-171.44572 c 0,-2.76 2.24,-5 5,-5 2.76,0 5,2.24 5,5 0,2.76 -2.24,5 -5,5 -2.76,0 -5,-2.24 -5,-5 z" effect="skeletal" id="path-effect4531-1" copytype="single_stretched" is_visible="true" prop_scale="0.26458439" spacing="0" scale_y_rel="false" tang_offset="0" normal_offset="0" vertical_pattern="false">
		</inkscape:path-effect>
</defs>
<sodipodi:namedview  showgrid="false" inkscape:cy="664.96589" inkscape:cx="172.99774" inkscape:zoom="1.2316035" borderopacity="1.0" bordercolor="#666666" pagecolor="#ffffff" id="base" inkscape:window-maximized="1" inkscape:window-y="-9" inkscape:window-x="-9" inkscape:window-height="1001" inkscape:window-width="1920" inkscape:snap-global="false" inkscape:snap-bbox="true" inkscape:current-layer="layer1" inkscape:document-units="mm" inkscape:pageshadow="2" inkscape:pageopacity="0.0">
	</sodipodi:namedview>
<path id="path4529" sodipodi:nodetypes="cccc" inkscape:original-d="M 163.75757,83.792517 C 128.54968,137.25459 99.66568,143.09459 75.210975,84.841447 74.853966,104.73412 66.284952,139.97788 45.093453,84.686458 97.331045,257.69803 158.22729,140.1488 163.71668,83.828513" inkscape:path-effect="#path-effect4531" inkscape:connector-curvature="0" class="st0" d="
	M283.2,96.6c0.2,0.2-4.9,9.3-16,25.5c-9.9,14.5-28.9,40.9-54.2,63.8c-9.4,8.5-20.7,17.4-33.8,24.1c-9.7,5-20.9,8.8-32.9,9.6
	c-10.5,0.7-21.5-1.2-31.8-5.8c-11.2-4.9-21.2-12.5-30.1-21.6c-23.3-24.7-38.4-56.2-52.1-92l0,0c0.8,15.1,0.3,30.5-2,45.8
	c-1.5,7-3.5,14-6.5,20.8c-2.2,5.2-5.1,10.7-9.8,15c-3.8,3.5-9.2,5.5-14.8,4.6h0c-7.1-1.5-12.6-6.1-16.7-10.9
	c-7.5-8.3-13.1-17.8-18.2-27.5c-6.9-15.7-12.5-32.1-17.6-48.9c4.7,14.5,9.7,29.1,15.1,43.6c13.1,35.9,27.5,69.8,44.5,101.8
	C22,275.6,39,303.7,62.1,325.6c8.2,7.8,17.1,14.6,26.8,19.4c8.2,4.1,16.9,6.8,25.7,7.7c8.4,0.8,16.8-0.1,24.7-2.4
	c8.5-2.4,16.5-6.4,23.8-11.2c17.9-11.6,32.1-28,43.7-43.8c15.2-20.9,26.9-43,36-62.9c12-26.1,20.2-50.3,26-70.1
	c12-41.2,13.9-65.7,14.5-65.6c0.3,0-0.1,24.6-11.2,66.5c-5.3,20.1-13.2,44.6-24.9,71.2c-8.9,20.2-20.5,42.7-35.8,64.2
	c-11.6,16.3-26.1,33.2-44.8,45.7c-7.6,5.1-16.2,9.4-25.4,12.2c-8.6,2.5-17.8,3.6-27.1,2.8c-9.7-0.9-19.2-3.8-28.1-8.2
	c-10.4-5.2-19.9-12.3-28.5-20.4C33.2,308,15.6,279.3-0.1,248.1c-15.7-32.9-28.6-67.7-40-104.5c-4.6-14.9-9-29.8-13-44.6
	c7.5,15.9,15.2,31.2,24.2,45.7c5,9.5,10.3,18.6,17.1,26c4,4.1,8,8,12.6,8.7h0c2.8,0.7,6.1-0.7,8.6-2.8c3.5-3.1,5.9-7.7,8.1-12.5
	c2.7-6.2,4.6-12.9,6.1-19.6c4.6-15.2,7.3-30.6,8.6-45.7l0,0C48.1,134,64.6,164.3,88.8,188c8.5,8.7,17.8,16,28.1,20.6
	c9.4,4.3,19.5,6.1,29.2,5.6c11.1-0.6,21.7-4.1,31-8.7c12.6-6.2,23.7-14.7,33.1-22.9C263.5,136,282.5,96.2,283.2,96.6L283.2,96.6z"/>
<path id="path4533" sodipodi:nodetypes="ccc" inkscape:original-d="m 44.92774,84.08157 c 23.734733,79.89559 60.03961,58.36216 76.2563,-0.109507 6.55972,89.258067 42.68627,8.34315 42.44342,0.05195" inkscape:path-effect="#path-effect4535" inkscape:connector-curvature="0" class="st0" d="
	M-53.6,97.5c0.9-0.3,7.9,28.1,28.9,70.8h0c7,14.2,16.3,31.2,29.1,46.1c7.8,9.1,17.5,18.1,29.2,23.3c8.6,3.8,18.6,5.3,28.2,3.4
	c9.8-1.9,19.2-7.1,27.6-14c10.1-8.2,18.6-18.6,26.3-30.1c10.9-15.2,20.1-31.9,28.1-49.8c7.4-16.7,13.6-33.9,18.8-50.6
	c3.2,26.4,7,50.3,13.8,73.4c1.9,7.7,4.2,15,7.2,21.9c2.2,5,4.7,9.6,8,13.3c2.4,2.7,5.2,4.9,8.2,6c2.6,1,5.6,1.1,8.4,0.5
	c3.3-0.7,6.5-2.3,9.5-4.2c3.7-2.4,7-5.4,10.1-8.5l0,0c8-8.1,14.6-17.5,20-25.9c7-11,12.8-21.8,17.3-31l0,0
	c5.6-11.4,9.4-20.3,12.3-27.9c1.7-4.4,2.7-7.4,3.6-10.3c1.3-4.2,1.5-6.5,1.8-6.5c0.4,0,0.6,2.4-0.3,6.8c-0.6,2.9-1.4,6.3-2.8,10.7
	c-2.4,7.8-5.8,17.1-11.1,28.8v0c-4.2,9.5-9.7,20.6-16.6,32c-5.3,8.8-11.8,18.6-20.1,27.3l0,0c-3.2,3.3-6.8,6.6-10.9,9.4
	c-3.3,2.3-7.1,4.2-11.5,5.2c-3.8,0.9-7.9,0.8-11.9-0.6c-4.3-1.6-8-4.3-10.9-7.6c-4-4.4-6.9-9.5-9.3-14.9c-3.3-7.3-5.8-15-7.8-22.9
	c-5-23.4-6.6-47.6-7.2-73.8c-4.1,17-9.1,34.6-15.5,51.8c-6.9,18.4-15.1,35.7-25.1,51.5c-8,11.9-17.1,22.8-28,31.5
	c-9.1,7.4-19.6,13-30.8,15.2c-11.2,2.1-22.6,0.2-32.2-4.2c-12.9-6-23.1-15.7-31.1-25.4c-13-15.7-22.2-33.3-28.9-47.9h0
	C-49.3,126.3-53.3,97.3-53.6,97.5z"/>
<g id="flowRoot4565" transform="matrix(1.7431041,0,0,1.7189167,-1005.1981,-257.50408)">
</g>
<path id="path4573" sodipodi:nodetypes="cc" inkscape:original-d="M 49.510404,99.249767 C 90.653433,211.56118 153.89018,147.16432 163.4607,85.742275" inkscape:path-effect="#path-effect4575" inkscape:connector-curvature="0" class="st1" d="
	M-40.7,140.4c1.2-0.4,13.2,41.2,48.8,95.3c12,18.3,28,39.2,49.2,54.7c13.8,10.1,30.6,18.2,48.7,20c9.6,1,19.5,0.3,29.2-2
	c6.1-1.4,12-3.4,17.6-5.9c16.7-7.3,31.2-18.4,43.6-30.4c15.3-14.8,27.6-31.5,37.6-47.5c20.9-33.5,32.3-65,38.8-87.1
	c6.6-22.3,8.8-35.5,9.4-35.4c-0.9-0.1-0.2,55.2-42.8,125.9c-9.9,16.5-22.4,33.7-38.1,49.3c-12.7,12.5-27.9,24.3-45.6,32.1
	c-6,2.7-12.4,4.8-18.9,6.4c-10.5,2.5-21.2,3.2-31.7,2.1c-19.8-2.2-37.7-10.9-52.2-21.7c-22-16.6-38.2-38.2-50-57.1
	C-32.2,182.6-39.5,140-40.7,140.4z"/>
<path id="path4609" sodipodi:nodetypes="cc" inkscape:original-d="M 48.256847,92.769411 C 75.69169,187.87814 151.79432,146.1857 162.07188,89.107284" inkscape:path-effect="#path-effect4611" inkscape:connector-curvature="0" class="st0" d="
	M-44.2,122.1c1.1-0.3,8.5,35.5,37.4,82.1c10.4,16.8,24.6,35.5,43.8,50c13.5,10.3,30,18.6,48.1,22.1c10.7,2.1,21.9,2.6,33.2,1.5
	c5.5-0.6,10.9-1.5,16.2-2.7c17.5-4.1,33.5-11.8,47.6-20.9c16.6-10.8,30.7-23.7,42.2-36.8c23.7-27,36.8-54.5,44-74.1
	c7.3-19.7,9.4-31.7,10.1-31.6c0.4,0.1-0.2,12.3-6.7,32.8c-6.4,20.3-18.9,48.9-42.7,77c-11.6,13.7-25.9,27.2-43.1,38.6
	c-14.5,9.6-31.3,17.7-49.8,22.1c-5.6,1.3-11.3,2.3-17.1,2.9c-12,1.2-24,0.7-35.4-1.6c-19.4-3.9-36.7-12.8-50.8-23.8
	c-19.9-15.5-34.3-35.1-44.5-52.5C-40.3,158.1-43.1,121.8-44.2,122.1z"/>
<path id="path4613" sodipodi:nodetypes="ccc" inkscape:original-d="m 102.10766,175.39191 c 22.0354,-0.64828 18.48364,-37.72895 19.0956,-91.554161 -3.44074,34.092711 -18.6041,86.869261 -37.811837,81.848351" inkscape:path-effect="#path-effect4615" inkscape:connector-curvature="0" class="st0" d="
	M108.4,356.3c0-0.8,7.8,2.7,20.8-4.4c5.3-2.9,10.7-7.7,15.2-14.6c4.3-6.5,7.5-14.1,10.1-23.2c2.8-9.4,4.7-19.5,6.1-30.8v0
	c3.3-25.4,4-50.4,4.5-81.9v0c-0.5-30.8-1.7-64.3-2.4-99.2c0-1.9-0.1-3.8-0.1-5.6c-3.9,27.5-9.7,54-16.1,78.5
	c-6.6,29.6-14.1,55.1-23,78.3c-9.9,25.7-18.7,43.1-31,57.6c-6.1,7.2-11.8,11.9-17.7,14.8c-11.3,5.6-19.2,2.6-19.3,3
	c0.2-0.8,6.7,4.9,20.3-0.8c6.4-2.7,12.8-7.4,19.3-14.7c13-14.4,22.7-32.3,33.1-58c9.4-23.3,17.3-49.1,24.2-78.8
	c4.8-24.8,8.6-51.5,10.3-79.5c-0.1,1.9-0.2,3.7-0.2,5.6c-1.4,34.9-2.1,68.2-3.1,98.9v0c-0.1,31.6-0.5,56.1-3.3,81.4c0,0,0,0,0,0
	c-1.2,11.2-2.9,21-5.3,30.3c-2.4,8.8-5.2,16.2-9,22.5c-4,6.7-8.8,11.3-13.6,14.3C116.9,356.8,108.4,355.9,108.4,356.3L108.4,356.3z"
	/>
<g id="flowRoot4565-6" transform="matrix(1.7468953,0,0,1.7189167,-594.7566,-163.97123)">
</g>
<rect x="-58.3" y="37.1" class="st2" width="372.2" height="79"/>
<text transform="matrix(1 0 0 1 -58.2523 93.4852)" class="st3 st4 st5">MercaMaris</text>
</svg>
